<?xml version="1.0" encoding="UTF-8" standalone="no"?><!DOCTYPE svg PUBLIC "-//W3C//DTD SVG 1.1//EN" "http://www.w3.org/Graphics/SVG/1.1/DTD/svg11.dtd"><svg width="100%" height="100%" viewBox="0 0 3125 3125" version="1.1" xmlns="http://www.w3.org/2000/svg" xmlns:xlink="http://www.w3.org/1999/xlink" xml:space="preserve" xmlns:serif="http://www.serif.com/" style="fill-rule:evenodd;clip-rule:evenodd;stroke-linejoin:round;stroke-miterlimit:2;"><rect id="FCFCFC" x="-10.425" y="-8.159" width="3125" height="3125" style="fill:#fcfcfc;"/><g id="Logo"><g transform="matrix(414.284,0,0,414.284,2958.01,1606.6)"></g><text x="157.043px" y="1606.6px" style="font-family:'BioRhyme-Regular', 'BioRhyme';font-size:414.284px;">T<tspan x="457.813px 716.326px 846.411px 1158.37px 1392.85px 1522.94px 1863.06px 2008.06px 2246.28px 2387.96px 2567.76px 2813.43px " y="1606.6px 1606.6px 1606.6px 1606.6px 1606.6px 1606.6px 1606.6px 1606.6px 1606.6px 1606.6px 1606.6px 1606.6px ">o-Be-Digital</tspan></text><g transform="matrix(215.508,0,0,215.508,1761.15,1802.15)"></g><text x="660.876px" y="1802.15px" style="font-family:'MerriweatherSans-Italic', 'Merriweather Sans';font-style:italic;font-size:215.508px;">w<tspan x="833.283px " y="1802.15px ">e</tspan>bbureau</text><g id="pixel"><rect x="498.431" y="1669.49" width="146.123" height="146.123" style="fill:#00f;"/><rect x="335.609" y="1669.49" width="146.123" height="146.123" style="fill:#0f0;"/><rect x="172.786" y="1669.49" width="146.123" height="146.123" style="fill:#f00;"/></g></g></svg>