<?xml version="1.0" encoding="UTF-8" standalone="no"?><!DOCTYPE svg PUBLIC "-//W3C//DTD SVG 1.1//EN" "http://www.w3.org/Graphics/SVG/1.1/DTD/svg11.dtd"><svg width="100%" height="100%" viewBox="0 0 2134 2134" version="1.1" xmlns="http://www.w3.org/2000/svg" xmlns:xlink="http://www.w3.org/1999/xlink" xml:space="preserve" xmlns:serif="http://www.serif.com/" style="fill-rule:evenodd;clip-rule:evenodd;stroke-linejoin:round;stroke-miterlimit:2;"><g id="Alex"><path d="M556.409,781.264l-280.664,0l-33.398,77.344c-10.938,25.781 -16.406,47.07 -16.406,63.867c-0,22.266 8.984,38.672 26.953,49.219c10.547,6.25 36.523,10.937 77.929,14.062l0,21.68l-264.257,0l-0,-21.68c28.515,-4.296 51.953,-16.113 70.312,-35.449c18.359,-19.336 41.016,-59.277 67.969,-119.824l284.179,-633.984l11.133,-0l286.524,651.562c27.343,61.719 49.804,100.586 67.383,116.602c13.281,12.109 32.031,19.14 56.25,21.093l-0,21.68l-384.375,0l-0,-21.68l15.82,0c30.859,0 52.539,-4.296 65.039,-12.89c8.594,-6.25 12.891,-15.235 12.891,-26.953c-0,-7.032 -1.172,-14.258 -3.516,-21.68c-0.781,-3.516 -6.641,-18.164 -17.578,-43.945l-42.188,-99.024Zm-19.922,-43.359l-118.359,-273.633l-121.875,273.633l240.234,-0Z" style="fill:#17285e;fill-rule:nonzero;"/><path d="M1178.67,212.905l-0,680.859c-0,38.672 4.492,63.379 13.476,74.121c8.985,10.743 26.563,16.895 52.735,18.457l-0,21.094l-295.899,0l0,-21.094c24.219,-0.781 42.188,-7.812 53.907,-21.093c7.812,-8.985 11.718,-32.813 11.718,-71.485l0,-567.187c0,-38.281 -4.492,-62.793 -13.476,-73.535c-8.985,-10.743 -26.367,-16.895 -52.149,-18.457l0,-21.68l229.688,-0Z" style="fill:#17285e;fill-rule:nonzero;"/><path d="M1761.68,713.881l-300.586,0c3.515,72.657 22.851,130.079 58.008,172.266c26.953,32.422 59.375,48.633 97.265,48.633c23.438,-0 44.727,-6.543 63.867,-19.629c19.141,-13.086 39.649,-36.621 61.524,-70.605l19.922,12.89c-29.688,60.547 -62.5,103.418 -98.438,128.613c-35.937,25.196 -77.539,37.793 -124.804,37.793c-81.25,0 -142.774,-31.25 -184.571,-93.75c-33.594,-50.39 -50.39,-112.89 -50.39,-187.5c-0,-91.406 24.707,-164.16 74.121,-218.261c49.414,-54.102 107.324,-81.153 173.73,-81.153c55.469,0 103.613,22.754 144.434,68.262c40.82,45.508 62.793,112.988 65.918,202.441Zm-144.141,-39.257c0,-62.891 -3.418,-106.055 -10.254,-129.493c-6.836,-23.437 -17.48,-41.21 -31.933,-53.32c-8.204,-7.031 -19.141,-10.547 -32.813,-10.547c-20.312,0 -36.914,9.961 -49.805,29.883c-23.046,34.766 -34.57,82.422 -34.57,142.969l0,20.508l159.375,-0Z" style="fill:#17285e;fill-rule:nonzero;"/><path d="M2120.76,1007.44l-55.563,0l0,-21.094c23.828,-1.953 38.575,-5.078 44.239,-9.375c5.664,-4.296 8.496,-10.156 8.496,-17.578c-0,-10.937 -6.25,-28.125 -18.75,-51.562l-47.461,-89.063l-40.43,59.18c-18.359,26.953 -28.711,42.969 -31.055,48.047c-3.125,7.422 -4.687,14.062 -4.687,19.922c-0,8.984 1.855,16.504 5.566,22.558c3.711,6.055 8.789,10.547 15.235,13.477c6.445,2.93 18.261,4.394 35.449,4.394l-0,21.094l-214.453,0l-0,-21.094c26.562,0 50.879,-7.324 72.949,-21.972c22.07,-14.649 54.199,-53.028 96.387,-115.137l45.117,-66.797l-94.336,-174.609c-30.859,-57.031 -53.906,-91.992 -69.141,-104.883c-15.234,-12.891 -32.226,-20.117 -50.976,-21.68l-0,-21.679l303.515,-0l0,21.679l-15.82,0.586l-30.469,10.547c-3.125,2.734 -4.687,7.227 -4.687,13.477c-0,5.859 0.976,11.914 2.93,18.164c1.171,2.734 6.64,13.281 16.406,31.64l31.539,58.758l-0,393Z" style="fill:#17285e;fill-rule:nonzero;"/></g><g id="San"><path d="M1027.91,1105.39l6.445,264.844l-24.024,0c-11.328,-66.406 -39.16,-119.824 -83.496,-160.254c-44.336,-40.43 -92.285,-60.644 -143.847,-60.644c-39.844,-0 -71.387,10.644 -94.629,31.933c-23.242,21.289 -34.863,45.801 -34.863,73.535c-0,17.579 4.101,33.204 12.304,46.875c11.328,18.36 29.492,36.524 54.492,54.493c18.36,12.89 60.743,35.742 127.149,68.554c92.969,45.703 155.664,88.867 188.086,129.492c32.031,40.625 48.047,87.11 48.047,139.454c-0,66.406 -25.879,123.535 -77.637,171.386c-51.758,47.852 -117.481,71.778 -197.168,71.778c-25,-0 -48.633,-2.539 -70.898,-7.618c-22.266,-5.078 -50.196,-14.648 -83.79,-28.71c-18.75,-7.813 -34.179,-11.719 -46.289,-11.719c-10.156,-0 -20.898,3.906 -32.226,11.719c-11.328,7.812 -20.508,19.726 -27.539,35.742l-21.68,-0l0,-300l21.68,-0c17.187,84.375 50.293,148.73 99.316,193.066c49.024,44.336 101.856,66.504 158.496,66.504c43.75,0 78.614,-11.914 104.59,-35.742c25.977,-23.828 38.965,-51.563 38.965,-83.203c-0,-18.75 -4.98,-36.914 -14.941,-54.492c-9.961,-17.579 -25.098,-34.278 -45.411,-50.098c-20.312,-15.82 -56.25,-36.426 -107.812,-61.817c-72.266,-35.546 -124.219,-65.82 -155.859,-90.82c-31.641,-25 -55.957,-52.93 -72.95,-83.789c-16.992,-30.859 -25.488,-64.844 -25.488,-101.953c0,-63.281 23.242,-117.188 69.727,-161.719c46.484,-44.531 105.078,-66.797 175.781,-66.797c25.781,0 50.781,3.125 75,9.375c18.359,4.688 40.723,13.379 67.09,26.075c26.367,12.695 44.824,19.043 55.371,19.043c10.156,-0 18.164,-3.125 24.023,-9.375c5.86,-6.25 11.328,-21.29 16.406,-45.118l17.579,0Z" style="fill:#17285e;fill-rule:nonzero;"/><path d="M1474.4,1837.23c-66.797,58.985 -126.758,88.477 -179.883,88.477c-31.25,-0 -57.226,-10.254 -77.93,-30.762c-20.703,-20.508 -31.054,-46.191 -31.054,-77.051c-0,-41.797 17.969,-79.394 53.906,-112.793c35.938,-33.398 114.258,-77.832 234.961,-133.3l-0,-55.079c-0,-41.406 -2.246,-67.48 -6.738,-78.222c-4.492,-10.742 -12.989,-20.117 -25.489,-28.125c-12.5,-8.008 -26.562,-12.012 -42.187,-12.012c-25.391,0 -46.289,5.664 -62.695,16.992c-10.157,7.032 -15.235,15.235 -15.235,24.61c0,8.203 5.469,18.359 16.406,30.468c14.844,16.797 22.266,33.008 22.266,48.633c0,19.141 -7.129,35.449 -21.387,48.926c-14.257,13.477 -32.91,20.215 -55.957,20.215c-24.609,-0 -45.214,-7.422 -61.816,-22.266c-16.602,-14.844 -24.902,-32.226 -24.902,-52.148c-0,-28.125 11.132,-54.981 33.398,-80.567c22.266,-25.586 53.32,-45.214 93.164,-58.886c39.844,-13.672 81.25,-20.508 124.219,-20.508c51.953,-0 93.066,11.035 123.34,33.105c30.273,22.071 49.902,45.996 58.886,71.778c5.469,16.406 8.204,54.101 8.204,113.086l-0,212.695c-0,25 0.976,40.723 2.929,47.168c1.953,6.445 4.883,11.23 8.789,14.355c3.907,3.125 8.399,4.688 13.477,4.688c10.156,-0 20.508,-7.227 31.055,-21.68l17.578,14.063c-19.532,28.906 -39.746,49.902 -60.645,62.988c-20.898,13.086 -44.629,19.629 -71.191,19.629c-31.25,-0 -55.664,-7.324 -73.242,-21.973c-17.579,-14.648 -28.321,-36.816 -32.227,-66.504Zm-0,-42.773l-0,-183.399c-47.266,27.735 -82.422,57.422 -105.469,89.063c-15.234,21.094 -22.851,42.383 -22.851,63.867c-0,17.969 6.445,33.789 19.336,47.461c9.765,10.547 23.437,15.82 41.015,15.82c19.531,0 42.188,-10.937 67.969,-32.812Z" style="fill:#17285e;fill-rule:nonzero;"/><path d="M2120.76,1445.38c-1.054,-0.976 -2.152,-1.903 -3.297,-2.781c-8.398,-6.445 -17.675,-9.668 -27.832,-9.668c-33.593,0 -64.843,24.024 -93.75,72.071l0,293.554c0,41.016 3.809,66.993 11.426,77.93c7.617,10.938 21.777,17.774 42.481,20.508l-0,21.094l-277.149,-0l0,-21.094c23.047,-2.344 39.453,-9.766 49.219,-22.266c6.641,-8.593 9.961,-33.984 9.961,-76.172l-0,-309.375c-0,-41.406 -3.809,-67.187 -11.426,-77.343c-7.617,-10.157 -23.535,-16.797 -47.754,-19.922l0,-21.68l223.242,0l0,70.899c28.125,-30.469 55.078,-52.637 80.86,-66.504c14.089,-7.579 28.763,-13.087 44.019,-16.523l-0,87.272Zm-0,472.708l-34.058,-0l-0,-21.094c14.052,-1.856 25.405,-6.411 34.058,-13.666l-0,34.76Z" style="fill:#17285e;fill-rule:nonzero;"/></g><path d="M2120.76,481.268l-0,-21.683l0.101,-0l0,21.679l-0.101,0.004Z" style="fill:#ebebeb;"/></svg>