<?xml version="1.0" encoding="UTF-8" standalone="no"?>
<!DOCTYPE svg PUBLIC "-//W3C//DTD SVG 1.1//EN" "http://www.w3.org/Graphics/SVG/1.1/DTD/svg11.dtd">
<svg width="100%" height="100%" viewBox="0 0 500 89" version="1.1" xmlns="http://www.w3.org/2000/svg" xmlns:xlink="http://www.w3.org/1999/xlink" xml:space="preserve" xmlns:serif="http://www.serif.com/" style="fill-rule:evenodd;clip-rule:evenodd;stroke-linejoin:round;stroke-miterlimit:2;">
    <g transform="matrix(10.4572,0,0,10.4572,-1781.82,-1709.14)">
        <g transform="matrix(0.142536,0,0,0.142536,0,0)">
            <g transform="matrix(50,0,0,50,1531.58,1181.66)">
            </g>
            <text x="1193.53px" y="1181.66px" style="font-family:'BioRhyme-Regular', 'BioRhyme';font-size:50px;">T<tspan x="1229.83px 1261.03px 1276.73px 1314.38px 1342.68px 1358.38px 1399.43px 1416.93px 1445.68px 1462.78px 1484.48px 1514.13px " y="1181.66px 1181.66px 1181.66px 1181.66px 1181.66px 1181.66px 1181.66px 1181.66px 1181.66px 1181.66px 1181.66px 1181.66px ">o-Be-Digital</tspan></text>
        </g>
        <g transform="matrix(0.142536,0,0,0.142536,-2.31246,-0.279696)">
            <g transform="matrix(25,0,0,25,1360.27,1207.73)">
            </g>
            <text x="1210.64px" y="1207.73px" style="font-family:'MerriweatherSans-Italic', 'Merriweather Sans';font-style:italic;font-size:25px;">mediebureau</text>
        </g>
    </g>
</svg>
