<?xml version="1.0" standalone="no"?>
<!DOCTYPE svg PUBLIC "-//W3C//DTD SVG 20010904//EN"
 "http://www.w3.org/TR/2001/REC-SVG-20010904/DTD/svg10.dtd">
<svg version="1.0" xmlns="http://www.w3.org/2000/svg"
 width="700.000000pt" height="700.000000pt" viewBox="0 0 700.000000 700.000000"
 preserveAspectRatio="xMidYMid meet">
<metadata>
Created by potrace 1.14, written by Peter Selinger 2001-2017
</metadata>
<g transform="translate(0.000000,700.000000) scale(0.100000,-0.100000)"
fill="#000000" stroke="none">
<path d="M1603 6347 c-5 -7 -31 -61 -58 -122 -26 -60 -62 -141 -80 -180 -18
-38 -49 -106 -68 -150 -19 -44 -46 -105 -60 -135 -34 -73 -95 -210 -242 -540
-67 -151 -134 -300 -148 -330 -14 -30 -84 -188 -157 -350 -274 -615 -336 -706
-512 -758 -56 -17 -58 -18 -58 -52 l0 -35 432 0 431 0 2 33 c1 18 -1 35 -4 36
-3 2 -34 7 -69 10 -154 16 -212 42 -249 116 -27 52 -29 94 -8 175 15 57 129
338 146 361 6 7 148 11 467 11 l458 0 98 -234 c104 -245 121 -311 95 -360 -26
-48 -100 -72 -225 -74 -35 -1 -64 -4 -65 -8 0 -3 -2 -14 -4 -25 -2 -10 -2 -23
1 -30 3 -8 165 -11 622 -10 339 1 622 2 629 3 6 0 11 15 10 33 -2 30 -5 32
-60 45 -154 35 -200 107 -492 772 -80 184 -155 352 -165 375 -10 23 -125 284
-256 581 -296 677 -273 623 -294 670 -10 22 -28 65 -41 95 -35 84 -55 105 -76
77z m-118 -1132 c59 -137 116 -270 127 -295 21 -47 36 -82 61 -140 8 -19 31
-72 50 -117 l36 -83 -394 0 -394 0 60 133 c84 185 77 169 182 407 142 321 157
353 161 349 2 -2 52 -116 111 -254z"/>
<path d="M3188 6302 l-77 -3 1 -33 c1 -32 4 -34 45 -40 59 -8 120 -41 137 -74
8 -15 19 -52 25 -82 12 -64 10 -2126 -2 -2175 -10 -40 -38 -76 -75 -98 -28
-16 -44 -21 -112 -32 -10 -1 -15 -13 -15 -36 l0 -34 483 0 c265 0 483 2 483 5
7 25 4 51 -5 59 -6 5 -31 11 -56 15 -100 14 -135 61 -148 194 -4 42 -7 584 -6
1204 l0 1127 -300 3 c-166 2 -336 2 -378 0z"/>
<path d="M5010 5543 c-175 -21 -333 -102 -469 -243 -179 -184 -265 -422 -264
-730 0 -74 10 -211 18 -240 2 -8 6 -31 9 -50 14 -93 88 -263 154 -355 132
-182 313 -273 558 -280 322 -10 548 138 728 477 l35 66 -24 16 c-13 9 -28 17
-33 18 -5 2 -32 -28 -61 -67 -119 -158 -207 -212 -354 -220 -227 -11 -439 223
-492 545 -26 156 -26 168 -7 174 9 2 213 5 452 5 239 0 454 0 477 0 l41 1 -4
75 c-6 103 -36 255 -68 340 -106 278 -338 463 -591 469 -44 1 -91 1 -105 -1z
m148 -149 c41 -31 89 -108 111 -179 21 -66 30 -154 35 -322 l3 -103 -51 -1
c-70 -1 -415 -1 -448 0 l-27 1 4 103 c6 129 11 164 36 257 33 120 93 215 158
250 47 26 139 23 179 -6z"/>
<path d="M5983 5492 c-19 -3 -23 -10 -23 -37 0 -31 3 -34 39 -40 48 -8 123
-54 159 -97 29 -34 102 -137 102 -143 0 -2 24 -45 54 -97 138 -242 347 -640
342 -654 -8 -20 -154 -233 -246 -357 -152 -207 -257 -284 -411 -300 -31 -4
-34 -8 -37 -38 l-3 -34 353 0 352 0 1 33 c1 34 -6 38 -60 41 -88 3 -137 69
-120 159 5 30 177 298 229 359 l19 23 84 -158 c111 -209 138 -276 126 -316
-10 -37 -48 -57 -115 -64 -48 -5 -59 -15 -53 -48 2 -11 4 -21 4 -24 1 -3 40
-5 89 -5 l87 0 1 645 0 645 -79 147 c-79 148 -101 215 -78 242 14 17 100 46
135 46 23 0 25 4 24 35 l-1 35 -71 1 c-423 3 -885 3 -903 1z"/>
<path d="M2440 3369 c-208 -21 -370 -98 -505 -240 -73 -77 -96 -109 -134 -186
-54 -111 -66 -165 -65 -318 0 -127 2 -148 28 -220 86 -250 270 -417 691 -631
350 -178 447 -238 532 -327 89 -93 127 -178 125 -282 -3 -140 -86 -261 -227
-331 -83 -40 -127 -49 -255 -48 -206 2 -365 76 -540 253 -142 144 -230 318
-284 564 -6 23 -11 27 -44 27 l-37 0 1 -487 0 -488 35 -3 c31 -3 37 1 70 50
43 64 110 103 174 101 37 -1 179 -48 270 -88 33 -14 178 -51 240 -60 22 -3 83
-6 135 -6 301 -2 552 107 727 317 119 142 174 291 174 474 1 231 -91 428 -268
576 -62 51 -237 174 -249 174 -2 0 -21 11 -42 23 -20 13 -140 77 -267 142
-267 136 -328 171 -410 236 -141 110 -192 227 -160 364 27 116 132 219 260
255 53 15 215 20 277 8 122 -24 264 -105 371 -212 114 -113 183 -236 231 -415
l23 -85 37 -1 38 -2 -7 311 c-4 171 -8 354 -10 406 -2 52 -4 109 -4 127 -1 28
-4 31 -27 29 -23 -3 -29 -11 -44 -57 -39 -128 -89 -150 -220 -94 -210 88 -282
116 -330 125 -113 22 -213 28 -310 19z"/>
<path d="M4610 2553 c-354 -48 -591 -194 -665 -408 -21 -61 -22 -148 -2 -195
21 -49 76 -103 134 -131 66 -33 198 -34 258 -2 78 41 127 117 127 197 0 55
-15 91 -65 156 -59 76 -68 99 -52 136 25 61 128 104 248 104 51 0 76 -6 118
-28 106 -55 124 -113 124 -387 0 -149 0 -149 -25 -162 -14 -7 -106 -53 -205
-102 -233 -114 -271 -136 -410 -227 -191 -126 -290 -267 -302 -431 -9 -111 17
-194 82 -271 121 -140 330 -155 559 -40 67 34 174 105 251 167 l50 40 16 -59
c21 -79 60 -134 117 -171 64 -40 112 -52 212 -52 100 -1 170 20 247 70 51 33
138 121 171 171 15 23 15 26 -12 49 l-28 23 -27 -29 c-57 -61 -126 -49 -147
24 -7 27 -11 198 -12 530 -2 479 -4 569 -17 650 -25 147 -214 321 -394 360
-12 3 -31 8 -43 11 -26 7 -270 12 -308 7z m226 -1142 c-1 -165 -3 -301 -6
-303 -128 -95 -210 -120 -295 -88 -67 26 -119 113 -117 200 2 105 45 185 161
300 64 64 231 190 251 190 4 0 6 -135 6 -299z"/>
<path d="M6905 2531 c-76 -19 -182 -88 -282 -185 -82 -79 -75 -85 -74 67 1 48
-2 88 -6 88 -5 1 -171 2 -369 3 l-361 2 2 -31 c2 -16 3 -33 4 -36 1 -3 26 -11
56 -18 66 -15 99 -44 117 -104 19 -61 19 -1376 0 -1428 -18 -50 -50 -78 -118
-98 -53 -17 -58 -21 -60 -50 l-2 -31 316 -1 c455 0 583 1 591 5 4 3 7 17 6 33
0 24 -6 29 -47 41 -26 7 -60 25 -76 40 -50 47 -53 95 -54 697 l0 543 26 39
c103 151 248 225 344 175 l37 -19 1 138 c0 93 -3 139 -10 138 -6 -1 -24 -4
-41 -8z"/>
<path d="M6901 795 c-48 -20 -55 -27 -57 -54 l-2 -31 57 0 58 0 0 55 c-1 30
-1 54 -1 54 -1 -1 -25 -12 -55 -24z"/>
</g>
</svg>
