<?xml version="1.0" standalone="no"?>
<!DOCTYPE svg PUBLIC "-//W3C//DTD SVG 20010904//EN"
 "http://www.w3.org/TR/2001/REC-SVG-20010904/DTD/svg10.dtd">
<svg version="1.0" xmlns="http://www.w3.org/2000/svg"
 width="700.000000pt" height="700.000000pt" viewBox="0 0 700.000000 700.000000"
 preserveAspectRatio="xMidYMid meet">
<metadata>
Created by potrace 1.14, written by Peter Selinger 2001-2017
</metadata>
<g transform="translate(0.000000,700.000000) scale(0.100000,-0.100000)"
fill="#000000" stroke="none">
<path d="M1892 6346 c-5 -6 -64 -135 -132 -286 -67 -151 -162 -363 -210 -470
-343 -765 -443 -989 -455 -1015 -7 -16 -24 -55 -38 -85 -105 -232 -135 -297
-178 -383 -106 -212 -174 -282 -317 -327 -29 -9 -53 -20 -53 -23 1 -4 1 -19 1
-35 l0 -27 430 0 c338 0 430 3 431 12 5 61 11 57 -96 70 -117 15 -149 26 -191
66 -57 53 -67 147 -28 266 21 62 125 303 136 316 6 6 175 10 465 11 l455 1 25
-56 c90 -202 174 -416 179 -455 16 -112 -47 -152 -251 -159 -49 -2 -50 -3 -51
-35 -1 -17 2 -33 5 -33 3 -1 286 -2 628 -3 410 -1 624 2 626 9 3 5 3 21 2 34
-1 20 -10 26 -66 40 -81 20 -118 47 -172 124 -60 85 -116 197 -247 497 -62
140 -127 288 -146 328 -19 41 -34 75 -34 77 0 3 -185 426 -250 570 -10 22 -82
186 -160 365 -78 179 -154 352 -169 385 -15 33 -43 97 -62 142 -33 79 -58 105
-77 79z m-66 -1253 c8 -18 21 -48 29 -65 8 -18 55 -126 104 -240 l89 -208
-394 0 c-218 0 -393 3 -391 8 3 4 77 169 165 367 88 198 176 396 196 439 l37
80 76 -175 c41 -96 81 -189 89 -206z"/>
<path d="M3638 6302 l-236 -2 0 -34 c0 -32 2 -34 44 -40 74 -10 123 -41 147
-94 l22 -47 2 -1066 c2 -1172 4 -1147 -56 -1201 -28 -25 -61 -38 -132 -52 -21
-5 -26 -11 -24 -33 1 -16 3 -30 3 -33 3 -8 962 -6 963 2 1 5 1 17 1 28 0 11 0
24 -1 29 0 4 -24 11 -52 14 -102 12 -142 59 -155 177 -4 36 -8 577 -8 1202 -1
625 -4 1139 -8 1143 -8 8 -197 11 -510 7z"/>
<path d="M5287 5544 c-1 -1 -18 -5 -37 -8 -234 -37 -474 -231 -588 -476 -28
-61 -64 -177 -77 -245 -34 -196 -20 -462 33 -630 110 -342 349 -531 683 -540
327 -9 553 139 733 478 l35 65 -22 14 c-12 8 -27 18 -34 21 -8 5 -28 -16 -55
-55 -148 -219 -333 -285 -542 -193 -53 23 -164 136 -208 211 -70 121 -116 286
-122 444 l-1 25 440 2 c242 1 464 2 493 2 l53 1 -6 58 c-18 180 -30 240 -70
355 -82 235 -286 422 -505 463 -32 6 -198 12 -203 8z m170 -160 c52 -43 102
-143 117 -234 13 -85 24 -302 17 -355 -1 -8 -267 -11 -500 -6 l-24 1 7 113
c10 171 29 256 80 362 57 116 115 158 208 152 46 -3 65 -9 95 -33z"/>
<path d="M6254 5491 c-2 -2 -4 -19 -4 -37 0 -29 3 -32 37 -39 82 -15 151 -73
226 -190 43 -67 147 -245 147 -251 0 -1 39 -74 86 -161 47 -87 104 -192 126
-233 22 -41 49 -91 60 -111 l20 -35 -98 -145 c-191 -283 -308 -421 -401 -472
-51 -27 -154 -56 -185 -51 -14 2 -18 -5 -18 -34 l0 -37 350 0 350 0 0 36 c0
28 -4 36 -17 36 -83 0 -96 4 -130 38 -34 34 -35 38 -31 95 4 56 10 67 116 224
l112 166 0 600 c0 565 -1 600 -17 601 -97 3 -726 3 -729 0z"/>
<path d="M2155 3369 c-162 -16 -258 -48 -380 -128 -188 -122 -308 -310 -333
-521 -42 -347 124 -611 533 -847 39 -22 142 -78 230 -123 338 -174 397 -211
488 -301 37 -37 69 -82 90 -126 28 -60 32 -78 32 -153 0 -73 -4 -93 -29 -143
-76 -156 -224 -240 -421 -241 -115 -1 -156 5 -239 34 -301 104 -524 380 -608
753 l-13 58 -35 -3 -35 -3 -1 -487 -1 -488 37 0 c29 0 39 5 47 23 19 40 64 87
106 108 59 31 121 27 224 -15 163 -65 263 -94 378 -111 49 -8 226 -8 280 0
225 32 417 129 556 283 95 105 166 245 187 365 13 78 7 268 -11 332 -83 291
-256 442 -862 749 -269 137 -320 169 -408 257 -88 88 -112 139 -112 244 0 66
4 89 25 129 32 64 107 137 167 166 351 168 821 -109 944 -555 33 -123 33 -122
71 -121 l33 2 -1 139 c-4 386 -15 720 -26 726 -26 16 -44 0 -64 -57 -29 -83
-38 -97 -75 -109 -47 -16 -103 -2 -230 55 -135 62 -206 86 -299 99 -105 15
-164 17 -245 10z"/>
<path d="M4266 2544 c-360 -56 -597 -236 -630 -475 -14 -105 58 -216 167 -258
80 -30 191 -24 254 15 64 40 105 99 111 162 6 65 -10 109 -65 182 -25 34 -49
77 -53 96 -8 33 -5 39 29 73 26 26 55 42 97 54 189 53 338 -21 359 -177 4 -27
8 -123 9 -212 2 -158 2 -164 -18 -170 -45 -14 -338 -161 -461 -232 -169 -96
-246 -152 -321 -229 -165 -170 -193 -419 -64 -566 172 -196 469 -155 800 112
54 44 66 49 68 34 31 -181 154 -273 357 -268 148 4 266 70 371 207 l47 60 -28
24 -28 24 -30 -30 c-56 -57 -121 -48 -143 20 -8 24 -12 186 -13 509 -1 637 -5
687 -58 781 -47 81 -159 180 -252 221 -119 53 -330 71 -505 43z m279 -1132 l1
-287 -33 -32 c-67 -65 -183 -100 -254 -78 -72 23 -128 100 -133 186 -6 105 39
195 159 314 84 84 242 202 254 189 3 -3 6 -134 6 -292z"/>
<path d="M6640 2536 c-122 -36 -204 -87 -317 -196 -34 -34 -64 -58 -64 -53 -1
4 -3 53 -4 108 -1 55 -3 103 -4 106 0 3 -164 5 -363 4 l-363 0 0 -34 c0 -31 3
-36 35 -43 104 -25 131 -55 148 -160 14 -90 9 -1325 -6 -1375 -16 -52 -60 -89
-130 -105 -47 -12 -50 -14 -50 -45 l0 -33 454 0 454 0 0 34 c0 30 -4 34 -31
40 -45 9 -97 43 -114 76 -26 50 -30 156 -30 685 l0 520 35 50 c100 146 222
210 325 171 55 -21 84 -60 101 -135 17 -70 19 -1134 3 -1221 -14 -74 -46 -114
-111 -138 -47 -17 -53 -23 -55 -51 -2 -19 2 -31 10 -31 23 -1 362 -1 400 0
l37 0 0 904 0 904 -52 18 c-82 27 -216 27 -308 0z"/>
</g>
</svg>
