<?xml version="1.0" encoding="UTF-8" standalone="no"?>
<!DOCTYPE svg PUBLIC "-//W3C//DTD SVG 1.1//EN" "http://www.w3.org/Graphics/SVG/1.1/DTD/svg11.dtd">
<svg width="100%" height="100%" viewBox="0 0 3238 2158" version="1.1" xmlns="http://www.w3.org/2000/svg" xmlns:xlink="http://www.w3.org/1999/xlink" xml:space="preserve" xmlns:serif="http://www.serif.com/" style="fill-rule:evenodd;clip-rule:evenodd;stroke-linejoin:round;stroke-miterlimit:2;">
    <path d="M925,0L925,925L0,925L0,0L925,0ZM3234.92,0L3234.92,925L1229.92,925L1229.92,0L3234.92,0ZM3238,1233L3238,2158L1233,2158L1233,1233L3238,1233ZM925,1233L925,2158L0,2158L0,1233L925,1233Z" style="fill:rgb(227,24,54);"/>
    <path d="M925,925L925,0L1233,0L1233,925L3238,925L3238,1233L1233,1233L1233,2156.86L925,2156.86L925,1233L0,1233L0,925L925,925Z" style="fill:white;"/>
</svg>
